<?xml version="1.0" standalone="no"?><!DOCTYPE svg PUBLIC "-//W3C//DTD SVG 1.1//EN" "http://www.w3.org/Graphics/SVG/1.1/DTD/svg11.dtd"><svg t="1769679171102" class="icon" viewBox="0 0 1024 1024" version="1.1" xmlns="http://www.w3.org/2000/svg" p-id="9912" xmlns:xlink="http://www.w3.org/1999/xlink" width="256" height="256"><path d="M66.12 187.3v651.65c0 14.44 11.7 26.14 26.14 26.14h841.71c14.44 0 26.14-11.7 26.14-26.14V187.3c0-14.44-11.7-26.14-26.14-26.14H92.26c-14.44-0.01-26.14 11.7-26.14 26.14z m829.99 37.85v96.11H130.12v-96.11h765.99zM130.12 801.09V385.26h765.99v415.83H130.12z" fill="#e2db4c" p-id="9913"></path><path d="M329.77 476.59L210.14 596.21l119.63 119.63a9.482 9.482 0 0 0 13.42 0L375.03 684a9.482 9.482 0 0 0 0-13.42l-74.37-74.37 74.37-74.37a9.482 9.482 0 0 0 0-13.42l-31.84-31.84c-3.71-3.7-9.72-3.7-13.42 0.01zM647.87 521.84l74.37 74.37-74.37 74.37a9.482 9.482 0 0 0 0 13.42l31.84 31.84a9.482 9.482 0 0 0 13.42 0l119.63-119.63-119.64-119.62a9.482 9.482 0 0 0-13.42 0l-31.84 31.84c-3.7 3.7-3.7 9.71 0.01 13.41zM434.61 717.62l41.3 17.92c4.81 2.09 10.4-0.12 12.48-4.93l101.85-234.74c2.09-4.81-0.12-10.4-4.93-12.48l-41.3-17.92c-4.81-2.09-10.4 0.12-12.48 4.93L429.68 705.13c-2.09 4.81 0.12 10.4 4.93 12.49z" fill="#e2db4c" p-id="9914"></path></svg>